<!-- Feather Icons, https://feathericons.com/ -->
<svg xmlns="http://www.w3.org/2000/svg"><defs><symbol id="cloud"><path d="M18 10h-1.26A8 8 0 1 0 9 20h9a5 5 0 0 0 0-10z"/></symbol><symbol id="cloud-drizzle"><line x1="8" y1="19" x2="8" y2="21"/><line x1="8" y1="13" x2="8" y2="15"/><line x1="16" y1="19" x2="16" y2="21"/><line x1="16" y1="13" x2="16" y2="15"/><line x1="12" y1="21" x2="12" y2="23"/><line x1="12" y1="15" x2="12" y2="17"/><path d="M20 16.58A5 5 0 0 0 18 7h-1.26A8 8 0 1 0 4 15.25"/></symbol><symbol id="cloud-lightning"><path d="M19 16.9A5 5 0 0 0 18 7h-1.26a8 8 0 1 0-11.62 9"/><polyline points="13 11 9 17 15 17 11 23"/></symbol><symbol id="cloud-rain"><line x1="16" y1="13" x2="16" y2="21"/><line x1="8" y1="13" x2="8" y2="21"/><line x1="12" y1="15" x2="12" y2="23"/><path d="M20 16.58A5 5 0 0 0 18 7h-1.26A8 8 0 1 0 4 15.25"/></symbol><symbol id="cloud-snow"><path d="M20 17.58A5 5 0 0 0 18 8h-1.26A8 8 0 1 0 4 16.25"/><line x1="8" y1="16" x2="8.01" y2="16"/><line x1="8" y1="20" x2="8.01" y2="20"/><line x1="12" y1="18" x2="12.01" y2="18"/><line x1="12" y1="22" x2="12.01" y2="22"/><line x1="16" y1="16" x2="16.01" y2="16"/><line x1="16" y1="20" x2="16.01" y2="20"/></symbol><symbol id="mist"><line x1="3" y1="12" x2="21" y2="12"/><path d="M 7,6 H 17"/><path d="M 7,18 H 19"/></symbol><symbol id="moon"><path d="M21 12.79A9 9 0 1 1 11.21 3 7 7 0 0 0 21 12.79z"/></symbol><symbol id="sun"><circle cx="12" cy="12" r="5"/><line x1="12" y1="1" x2="12" y2="3"/><line x1="12" y1="21" x2="12" y2="23"/><line x1="4.22" y1="4.22" x2="5.64" y2="5.64"/><line x1="18.36" y1="18.36" x2="19.78" y2="19.78"/><line x1="1" y1="12" x2="3" y2="12"/><line x1="21" y1="12" x2="23" y2="12"/><line x1="4.22" y1="19.78" x2="5.64" y2="18.36"/><line x1="18.36" y1="5.64" x2="19.78" y2="4.22"/></symbol><symbol id="sunrise"><path d="M17 18a5 5 0 0 0-10 0"/><line x1="12" y1="2" x2="12" y2="9"/><line x1="4.22" y1="10.22" x2="5.64" y2="11.64"/><line x1="1" y1="18" x2="3" y2="18"/><line x1="21" y1="18" x2="23" y2="18"/><line x1="18.36" y1="11.64" x2="19.78" y2="10.22"/><line x1="23" y1="22" x2="1" y2="22"/><polyline points="8 6 12 2 16 6"/></symbol><symbol id="sunset"><path d="M17 18a5 5 0 0 0-10 0"/><line x1="12" y1="9" x2="12" y2="2"/><line x1="4.22" y1="10.22" x2="5.64" y2="11.64"/><line x1="1" y1="18" x2="3" y2="18"/><line x1="21" y1="18" x2="23" y2="18"/><line x1="18.36" y1="11.64" x2="19.78" y2="10.22"/><line x1="23" y1="22" x2="1" y2="22"/><polyline points="16 5 12 9 8 5"/></symbol></defs></svg>